<svg id="svg" version="1.1" xmlns="http://www.w3.org/2000/svg" xmlns:xlink="http://www.w3.org/1999/xlink" width="400" height="400" viewBox="0, 0, 400,400"><g id="svgg"><path id="path0" d="M292.188 14.674 C 281.768 16.905,273.212 18.734,273.176 18.740 C 273.090 18.753,272.764 20.458,272.457 22.501 L 272.216 24.104 275.306 24.316 C 279.872 24.628,282.821 26.427,283.617 29.385 C 284.538 32.805,285.239 29.853,262.145 119.813 C 251.598 160.895,242.969 194.689,242.969 194.910 C 242.969 195.179,247.737 195.312,257.324 195.311 L 271.680 195.310 276.897 175.487 L 282.115 155.664 285.506 148.438 C 300.533 116.416,320.740 91.596,327.472 96.892 C 329.970 98.857,329.841 99.493,319.286 137.279 C 308.231 176.853,307.968 178.018,308.671 184.336 C 310.028 196.517,323.682 200.569,336.840 192.695 C 343.786 188.539,350.756 180.436,357.574 168.590 C 360.118 164.170,360.118 164.196,357.459 162.560 L 355.478 161.341 354.929 162.214 C 354.627 162.693,353.362 164.756,352.117 166.797 C 345.776 177.198,341.860 180.510,339.481 177.486 C 337.912 175.492,337.612 176.770,349.171 136.276 C 354.116 118.952,358.552 102.780,359.029 100.338 C 364.977 69.862,342.295 61.481,319.304 85.661 C 311.089 94.300,306.175 101.321,289.533 128.195 C 288.825 129.338,288.334 129.922,288.441 129.492 C 289.575 124.962,318.448 11.738,318.599 11.230 C 319.127 9.456,312.566 10.311,292.188 14.674 M191.756 11.545 C 179.332 13.795,168.907 22.406,158.708 38.842 L 156.674 42.120 157.536 42.666 C 158.010 42.966,159.030 43.594,159.802 44.061 L 161.206 44.910 164.283 40.775 C 171.182 31.498,177.606 27.370,185.172 27.350 C 195.671 27.322,204.269 36.983,204.287 48.828 C 204.317 68.500,186.840 84.388,158.743 90.231 C 152.058 91.621,152.630 91.266,151.834 94.520 C 151.094 97.545,150.741 97.140,154.722 97.835 C 169.687 100.444,178.827 106.921,185.062 119.336 C 195.808 140.732,190.289 176.289,175.028 183.981 C 169.752 186.640,164.233 184.926,154.297 177.543 C 144.493 170.259,140.262 167.969,136.604 167.969 C 131.197 167.969,125.905 171.960,124.387 177.185 C 117.085 202.302,162.286 207.543,191.984 185.023 C 210.450 171.020,219.336 153.234,219.336 130.273 C 219.336 109.146,212.834 97.205,196.508 88.346 L 193.721 86.834 198.520 85.161 C 222.140 76.929,232.813 64.451,232.813 45.066 C 232.813 22.676,214.202 7.482,191.756 11.545 M72.450 71.891 C 54.721 74.210,43.550 87.981,44.263 106.641 C 44.729 118.851,47.830 124.649,66.930 149.023 C 71.862 155.318,75.861 161.111,77.451 164.268 C 86.397 182.024,73.895 198.451,57.568 190.392 C 47.809 185.574,42.989 177.300,37.506 155.957 L 37.079 154.297 35.141 154.297 C 33.724 154.297,33.203 154.447,33.203 154.853 C 33.203 155.160,31.973 164.979,30.469 176.675 C 28.965 188.371,27.734 198.140,27.734 198.384 C 27.734 199.793,31.873 198.846,33.148 197.144 C 36.070 193.244,39.844 192.879,49.219 195.591 C 57.941 198.114,60.859 198.624,66.602 198.629 C 89.402 198.648,106.574 178.440,104.295 154.273 C 103.174 142.385,99.057 135.020,80.727 112.109 C 74.363 104.155,72.132 100.846,71.038 97.747 C 66.947 86.146,74.705 76.353,85.938 78.940 C 96.823 81.447,107.031 96.863,107.031 110.793 L 107.031 112.500 109.284 112.500 L 111.536 112.500 114.090 91.992 L 116.644 71.484 114.584 71.484 C 112.732 71.484,112.433 71.607,111.633 72.694 C 108.903 76.403,105.277 76.753,95.612 74.238 C 85.675 71.653,79.252 71.002,72.450 71.891 M290.987 207.989 C 269.403 212.526,271.266 211.940,270.912 214.303 C 270.763 215.300,270.558 216.330,270.457 216.592 C 270.326 216.934,271.228 217.136,273.652 217.307 C 280.941 217.822,283.552 221.018,282.512 228.155 C 282.258 229.895,273.246 265.800,262.484 307.944 C 251.723 350.089,242.682 385.495,242.393 386.626 L 241.869 388.681 256.751 388.579 L 271.632 388.477 277.286 365.820 L 282.939 343.164 289.413 336.602 C 292.973 332.994,295.928 330.181,295.980 330.352 C 296.032 330.524,297.659 338.864,299.596 348.886 C 305.779 380.874,307.617 385.947,314.250 389.343 C 324.669 394.676,340.951 380.063,351.719 355.714 L 352.647 353.617 350.748 352.199 C 348.227 350.317,348.408 350.217,346.071 354.785 C 341.199 364.306,337.980 367.483,334.847 365.862 C 332.259 364.524,331.115 360.075,324.207 324.484 L 320.278 304.242 323.377 300.852 C 336.761 286.211,346.733 278.678,357.358 275.182 C 362.156 273.603,361.692 274.068,362.717 269.821 L 362.977 268.744 339.229 268.845 L 315.481 268.945 314.974 270.898 C 314.233 273.758,314.226 273.746,316.699 274.033 C 332.123 275.826,331.755 281.774,315.154 299.056 C 311.009 303.371,302.796 312.026,296.903 318.290 C 291.010 324.554,286.149 329.636,286.101 329.585 C 286.033 329.513,313.710 220.015,317.104 206.934 L 317.889 203.906 313.925 203.954 C 310.507 203.994,307.349 204.550,290.987 207.989 M89.873 265.244 C 68.010 269.844,44.650 300.774,35.376 337.400 C 28.468 364.683,34.390 388.750,48.750 391.754 C 61.678 394.459,74.213 383.986,88.671 358.398 C 93.239 350.315,93.807 349.367,93.590 350.195 C 86.353 377.783,86.017 382.073,90.639 387.908 C 94.742 393.089,105.223 393.515,114.436 388.876 C 122.343 384.894,130.093 376.096,136.684 363.618 L 139.085 359.072 137.381 358.073 C 136.444 357.524,135.500 357.021,135.283 356.955 C 135.066 356.890,133.100 359.511,130.913 362.781 C 124.936 371.716,120.583 374.853,117.992 372.095 C 115.809 369.771,115.984 368.956,131.389 309.582 C 137.520 285.955,142.487 266.575,142.427 266.515 C 142.367 266.455,136.282 266.846,128.906 267.383 C 121.529 267.920,115.371 268.359,115.221 268.359 C 115.072 268.359,114.011 271.990,112.866 276.427 C 111.720 280.865,110.732 284.336,110.671 284.142 C 110.609 283.948,110.120 282.031,109.582 279.883 C 106.616 268.020,100.008 263.112,89.873 265.244 M180.734 269.317 C 170.246 271.742,161.525 273.881,161.355 274.070 C 161.185 274.259,160.871 275.136,160.657 276.018 L 160.268 277.621 164.594 277.869 C 174.866 278.457,176.940 282.310,174.194 295.703 C 173.732 297.959,168.362 319.607,162.263 343.811 C 156.163 368.014,151.172 388.009,151.172 388.244 C 151.172 388.546,155.351 388.672,165.381 388.672 L 179.590 388.672 181.811 379.785 C 192.217 338.144,206.419 303.562,215.739 297.168 C 218.727 295.119,219.995 295.884,222.788 301.421 C 229.041 313.821,239.622 307.196,242.763 288.914 C 245.825 271.098,238.341 260.701,226.595 266.450 C 217.624 270.841,207.593 288.900,191.203 330.171 C 189.519 334.411,188.100 337.839,188.050 337.788 C 188.000 337.737,192.346 321.787,197.708 302.344 C 203.070 282.900,207.559 266.509,207.684 265.918 L 207.910 264.844 203.857 264.875 C 200.138 264.904,198.237 265.269,180.734 269.317 M99.931 274.494 C 110.745 282.512,103.818 322.196,86.600 350.864 C 67.470 382.716,55.669 366.261,67.567 324.327 C 77.472 289.419,91.315 268.105,99.931 274.494 " stroke="none" fill="#fafafa" fill-rule="evenodd"></path><path id="path1" d="M0.000 199.805 L 0.000 399.609 200.000 399.609 L 400.000 399.609 400.000 199.805 L 400.000 0.000 200.000 0.000 L 0.000 0.000 0.000 199.805 M394.336 199.609 L 394.336 393.945 200.000 393.945 L 5.664 393.945 5.564 200.000 C 5.509 93.330,5.548 5.835,5.650 5.566 C 5.798 5.176,44.890 5.097,200.086 5.175 L 394.336 5.273 394.336 199.609 " stroke="none" fill="#04acec" fill-rule="evenodd"></path><path id="path2" d="M5.859 199.609 L 5.859 393.750 200.000 393.750 L 394.141 393.750 394.141 199.609 L 394.141 5.469 200.000 5.469 L 5.859 5.469 5.859 199.609 M318.750 10.943 C 318.750 11.230,295.991 100.723,289.259 126.911 C 288.575 129.571,288.581 129.562,293.170 122.070 C 306.257 100.703,312.472 92.160,321.305 83.398 C 340.883 63.977,361.217 68.991,360.023 92.945 C 359.681 99.807,359.055 102.335,348.897 137.891 C 339.010 172.497,338.392 174.943,339.098 176.648 C 340.959 181.141,345.338 177.641,352.385 166.028 C 355.647 160.651,355.223 160.898,358.014 162.751 C 360.579 164.454,360.588 163.676,357.956 168.248 C 346.369 188.381,335.426 197.302,322.931 196.803 C 311.092 196.330,306.170 187.818,309.304 173.242 C 309.766 171.094,314.000 155.537,318.713 138.672 C 329.849 98.822,329.712 99.457,327.602 97.347 C 321.222 90.966,300.100 117.033,284.937 150.000 C 282.213 155.924,282.617 154.529,272.232 193.848 L 271.845 195.312 257.185 195.312 C 243.404 195.312,242.538 195.272,242.736 194.629 C 243.822 191.105,282.227 40.610,282.814 37.578 C 284.653 28.086,282.896 25.078,275.098 24.365 C 271.919 24.075,271.999 24.202,272.588 20.338 L 272.852 18.607 291.602 14.611 C 310.557 10.571,318.750 9.464,318.750 10.943 M206.559 11.555 C 237.271 17.850,242.873 59.076,215.506 77.381 C 210.745 80.566,196.866 86.715,194.430 86.720 C 194.163 86.720,195.479 87.581,197.353 88.632 C 211.911 96.798,218.742 108.435,219.761 126.803 C 220.984 148.863,212.142 168.569,194.365 183.398 C 165.828 207.203,117.462 203.588,123.989 178.138 C 125.562 172.003,129.703 168.404,135.593 168.052 C 140.419 167.764,143.194 169.117,153.562 176.814 C 162.593 183.518,167.413 185.612,171.868 184.767 C 188.497 181.613,196.435 143.845,185.383 120.474 C 179.080 107.148,168.335 99.566,153.237 97.791 C 150.852 97.511,150.840 97.475,151.880 93.793 L 152.586 91.298 158.031 90.199 C 182.841 85.191,199.236 72.912,203.157 56.402 C 207.545 37.928,194.599 23.369,178.531 28.706 C 173.994 30.213,168.549 34.989,163.968 41.479 C 161.158 45.461,161.611 45.268,158.824 43.668 C 156.161 42.138,156.147 42.557,159.007 38.018 C 172.722 16.248,187.995 7.749,206.559 11.555 M86.961 72.089 C 88.869 72.422,93.121 73.389,96.410 74.238 C 105.189 76.504,108.544 76.198,111.181 72.893 C 112.215 71.597,116.797 70.629,116.797 71.707 C 116.797 72.101,112.120 109.516,111.881 111.035 L 111.650 112.500 109.403 112.500 L 107.156 112.500 106.690 108.705 C 105.198 96.560,100.086 87.158,92.086 81.847 C 81.307 74.690,68.799 80.881,70.123 92.718 C 70.761 98.419,72.461 101.473,80.808 111.914 C 100.015 135.941,103.968 143.319,104.571 156.273 C 105.672 179.940,88.755 198.828,66.457 198.828 C 61.440 198.828,58.419 198.301,49.418 195.856 C 39.261 193.097,36.169 193.350,33.399 197.166 C 32.246 198.753,32.186 198.781,29.795 198.804 L 27.363 198.828 27.559 197.754 C 27.666 197.163,28.890 187.715,30.278 176.758 C 31.667 165.801,32.902 156.256,33.024 155.547 C 33.245 154.264,33.256 154.258,35.261 154.375 L 37.275 154.492 38.769 159.955 C 42.590 173.934,45.799 180.635,51.027 185.557 C 69.002 202.480,88.754 184.813,76.450 162.819 C 74.618 159.543,70.048 153.126,65.328 147.198 C 46.774 123.903,42.620 114.893,44.133 101.237 C 46.487 79.988,63.980 68.082,86.961 72.089 M317.720 204.980 C 317.575 205.571,310.467 233.652,301.924 267.382 C 293.381 301.111,286.442 328.759,286.504 328.822 C 286.566 328.884,292.216 322.996,299.059 315.737 C 305.903 308.478,314.059 299.902,317.185 296.680 C 331.108 282.325,331.140 275.515,317.291 274.344 C 313.857 274.054,313.962 274.183,314.721 271.170 L 315.331 268.750 339.111 268.750 C 365.955 268.750,363.325 268.384,362.391 271.986 L 361.906 273.855 357.286 275.403 C 350.953 277.525,346.564 279.890,341.763 283.766 C 333.200 290.680,320.703 303.112,320.703 304.716 C 320.703 307.720,330.929 357.574,332.454 362.008 C 335.035 369.508,339.705 366.892,346.090 354.371 C 348.347 349.945,348.207 350.012,350.962 352.039 C 353.184 353.674,353.255 353.223,349.660 360.301 C 338.097 383.062,324.435 394.336,314.258 389.514 C 307.350 386.241,305.537 381.000,298.425 343.750 C 297.092 336.768,295.889 330.931,295.753 330.780 C 295.616 330.628,292.693 333.441,289.256 337.031 L 283.008 343.557 277.366 366.115 L 271.724 388.672 256.718 388.672 L 241.712 388.672 241.973 387.598 C 242.116 387.007,250.741 353.213,261.140 312.500 C 284.494 221.064,282.529 229.147,282.362 225.202 C 282.138 219.919,280.164 218.091,274.145 217.592 C 269.942 217.244,270.050 217.346,270.737 214.371 L 271.296 211.950 290.238 207.971 C 307.415 204.362,309.590 203.987,313.582 203.949 L 317.984 203.906 317.720 204.980 M99.771 265.646 C 104.597 267.451,107.741 271.898,109.697 279.683 L 110.761 283.916 112.665 276.430 C 113.712 272.314,114.763 268.750,114.999 268.511 C 115.466 268.040,142.033 266.122,142.441 266.530 C 142.571 266.659,137.475 286.855,131.117 311.410 C 116.039 369.648,116.005 369.805,118.249 372.049 C 120.839 374.639,125.333 371.122,131.472 361.700 C 133.285 358.917,134.874 356.641,135.003 356.641 C 135.484 356.641,139.062 358.801,139.062 359.092 C 139.066 361.749,129.187 376.744,124.058 381.867 C 111.375 394.534,93.603 396.009,88.550 384.813 C 86.552 380.387,87.235 373.931,91.376 358.105 C 92.430 354.077,93.235 350.781,93.165 350.781 C 93.095 350.781,92.126 352.495,91.010 354.590 C 77.151 380.609,64.616 392.609,51.805 392.122 C 27.087 391.182,25.764 342.959,49.327 301.818 C 63.998 276.201,85.937 260.470,99.771 265.646 M208.039 265.527 C 207.630 266.818,189.424 333.008,189.209 333.984 C 189.091 334.521,190.428 331.445,192.181 327.148 C 211.741 279.186,220.467 265.517,231.907 264.916 C 240.416 264.470,244.672 271.857,243.429 284.918 C 241.461 305.608,229.656 315.153,222.725 301.659 C 220.020 296.394,219.130 295.699,216.561 296.849 C 210.964 299.355,202.644 315.474,192.453 343.555 C 189.398 351.973,187.403 358.768,183.204 375.062 C 181.468 381.795,179.955 387.612,179.841 387.988 C 179.650 388.623,178.608 388.672,165.182 388.672 C 151.599 388.672,150.741 388.631,150.934 387.988 C 151.702 385.427,173.249 299.482,173.825 296.680 C 176.772 282.355,175.088 278.831,164.965 278.136 C 159.720 277.776,159.964 277.923,160.659 275.540 L 161.209 273.653 180.116 269.281 C 200.533 264.560,208.693 263.463,208.039 265.527 M94.727 273.898 C 78.381 277.511,54.589 354.173,66.208 365.791 C 72.946 372.529,86.033 356.721,97.069 328.516 C 108.485 299.339,107.275 271.124,94.727 273.898 M99.902 399.902 C 154.956 399.957,245.044 399.957,300.098 399.902 C 355.151 399.848,310.107 399.803,200.000 399.803 C 89.893 399.803,44.849 399.848,99.902 399.902 " stroke="none" fill="#040404" fill-rule="evenodd"></path><path id="path3" d="M5.650 5.566 C 5.548 5.835,5.509 93.330,5.564 200.000 L 5.664 393.945 200.000 393.945 L 394.336 393.945 394.336 199.609 L 394.336 5.273 200.086 5.175 C 44.890 5.097,5.798 5.176,5.650 5.566 M394.141 199.609 L 394.141 393.750 200.000 393.750 L 5.859 393.750 5.859 199.609 L 5.859 5.469 200.000 5.469 L 394.141 5.469 394.141 199.609 " stroke="none" fill="#0477a3" fill-rule="evenodd"></path><path id="path4" d="M221.875 19.263 C 221.875 19.330,222.446 19.901,223.145 20.532 L 224.414 21.680 223.267 20.410 C 222.197 19.227,221.875 18.961,221.875 19.263 M170.499 23.145 L 167.383 26.367 170.605 23.251 C 173.599 20.357,174.006 19.922,173.721 19.922 C 173.663 19.922,172.212 21.372,170.499 23.145 M283.684 31.250 C 283.684 32.002,283.765 32.310,283.863 31.934 C 283.961 31.558,283.961 30.942,283.863 30.566 C 283.765 30.190,283.684 30.498,283.684 31.250 M232.957 44.922 C 232.957 47.178,233.022 48.101,233.100 46.973 C 233.179 45.845,233.179 43.999,233.100 42.871 C 233.022 41.743,232.957 42.666,232.957 44.922 M204.005 47.070 C 204.009 47.930,204.089 48.235,204.183 47.749 C 204.276 47.263,204.272 46.560,204.175 46.187 C 204.077 45.813,204.000 46.211,204.005 47.070 M204.013 50.781 C 204.013 51.748,204.089 52.144,204.182 51.660 C 204.275 51.177,204.275 50.386,204.182 49.902 C 204.089 49.419,204.013 49.814,204.013 50.781 M320.690 83.887 L 318.555 86.133 320.801 83.998 C 322.036 82.823,323.047 81.813,323.047 81.752 C 323.047 81.462,322.673 81.800,320.690 83.887 M43.867 105.078 C 43.867 106.260,43.940 106.743,44.030 106.152 C 44.119 105.562,44.119 104.595,44.030 104.004 C 43.940 103.413,43.867 103.896,43.867 105.078 M311.499 106.348 L 310.352 107.617 311.621 106.470 C 312.319 105.839,312.891 105.268,312.891 105.200 C 312.891 104.899,312.568 105.164,311.499 106.348 M219.679 130.078 C 219.679 132.549,219.742 133.560,219.820 132.324 C 219.897 131.089,219.897 129.067,219.820 127.832 C 219.742 126.597,219.679 127.607,219.679 130.078 M288.800 128.175 C 288.911 128.525,288.807 129.005,288.570 129.243 C 288.332 129.480,288.221 129.757,288.322 129.859 C 288.747 130.283,289.372 128.628,288.990 128.090 C 288.671 127.641,288.636 127.657,288.800 128.175 M190.325 140.234 C 190.325 140.986,190.405 141.294,190.504 140.918 C 190.602 140.542,190.602 139.927,190.504 139.551 C 190.405 139.175,190.325 139.482,190.325 140.234 M190.325 151.563 C 190.325 152.314,190.405 152.622,190.504 152.246 C 190.602 151.870,190.602 151.255,190.504 150.879 C 190.405 150.503,190.325 150.811,190.325 151.563 M104.395 155.273 C 104.400 156.133,104.480 156.438,104.573 155.952 C 104.667 155.467,104.663 154.763,104.565 154.390 C 104.467 154.017,104.391 154.414,104.395 155.273 M104.395 161.523 C 104.400 162.383,104.480 162.688,104.573 162.202 C 104.667 161.717,104.663 161.013,104.565 160.640 C 104.467 160.267,104.391 160.664,104.395 161.523 M127.514 171.582 L 126.367 172.852 127.637 171.704 C 128.820 170.635,129.086 170.313,128.784 170.313 C 128.717 170.313,128.146 170.884,127.514 171.582 M199.991 178.027 L 196.680 181.445 200.098 178.134 C 201.978 176.312,203.516 174.774,203.516 174.716 C 203.516 174.431,203.067 174.853,199.991 178.027 M344.702 176.660 L 343.555 177.930 344.824 176.782 C 345.522 176.151,346.094 175.580,346.094 175.513 C 346.094 175.211,345.771 175.477,344.702 176.660 M308.302 180.273 C 308.306 181.133,308.386 181.438,308.479 180.952 C 308.573 180.467,308.569 179.763,308.472 179.390 C 308.374 179.017,308.297 179.414,308.302 180.273 M179.276 180.762 L 177.930 182.227 179.395 180.880 C 180.200 180.140,180.859 179.481,180.859 179.416 C 180.859 179.117,180.529 179.398,179.276 180.762 M123.528 180.859 C 123.528 181.611,123.609 181.919,123.707 181.543 C 123.805 181.167,123.805 180.552,123.707 180.176 C 123.609 179.800,123.528 180.107,123.528 180.859 M308.294 183.203 C 308.294 183.955,308.374 184.263,308.472 183.887 C 308.571 183.511,308.571 182.896,308.472 182.520 C 308.374 182.144,308.294 182.451,308.294 183.203 M50.195 185.156 C 51.034 186.016,51.809 186.719,51.916 186.719 C 52.024 186.719,51.425 186.016,50.586 185.156 C 49.747 184.297,48.972 183.594,48.865 183.594 C 48.757 183.594,49.356 184.297,50.195 185.156 M344.325 186.816 L 341.602 189.648 344.434 186.925 C 345.991 185.426,347.266 184.152,347.266 184.093 C 347.266 183.806,346.855 184.186,344.325 186.816 M92.948 187.793 L 91.602 189.258 93.066 187.912 C 94.430 186.659,94.711 186.328,94.413 186.328 C 94.347 186.328,93.688 186.987,92.948 187.793 M75.568 188.379 L 74.023 190.039 75.684 188.495 C 77.228 187.059,77.523 186.719,77.228 186.719 C 77.164 186.719,76.417 187.466,75.568 188.379 M126.563 191.528 C 126.563 191.596,127.134 192.167,127.832 192.798 L 129.102 193.945 127.954 192.676 C 126.885 191.492,126.563 191.227,126.563 191.528 M155.176 199.097 C 155.552 199.196,156.167 199.196,156.543 199.097 C 156.919 198.999,156.611 198.919,155.859 198.919 C 155.107 198.919,154.800 198.999,155.176 199.097 M272.369 217.468 C 272.962 217.558,273.841 217.555,274.322 217.462 C 274.802 217.370,274.316 217.296,273.242 217.299 C 272.168 217.302,271.775 217.378,272.369 217.468 M282.543 225.586 C 282.545 226.875,282.618 227.355,282.705 226.653 C 282.792 225.951,282.790 224.896,282.701 224.309 C 282.612 223.722,282.541 224.297,282.543 225.586 M137.988 266.676 C 138.364 266.774,138.979 266.774,139.355 266.676 C 139.731 266.577,139.424 266.497,138.672 266.497 C 137.920 266.497,137.612 266.577,137.988 266.676 M238.281 266.528 C 238.281 266.596,238.853 267.167,239.551 267.798 L 240.820 268.945 239.673 267.676 C 238.604 266.492,238.281 266.227,238.281 266.528 M132.520 267.066 C 132.896 267.164,133.511 267.164,133.887 267.066 C 134.263 266.968,133.955 266.888,133.203 266.888 C 132.451 266.888,132.144 266.968,132.520 267.066 M126.860 267.464 C 127.346 267.557,128.049 267.554,128.423 267.456 C 128.796 267.358,128.398 267.282,127.539 267.286 C 126.680 267.290,126.374 267.370,126.860 267.464 M121.391 267.854 C 121.877 267.948,122.580 267.944,122.954 267.847 C 123.327 267.749,122.930 267.672,122.070 267.677 C 121.211 267.681,120.905 267.761,121.391 267.854 M115.923 268.245 C 116.408 268.338,117.112 268.335,117.485 268.237 C 117.858 268.139,117.461 268.063,116.602 268.067 C 115.742 268.072,115.437 268.152,115.923 268.245 M220.874 270.410 L 219.727 271.680 220.996 270.532 C 221.694 269.901,222.266 269.330,222.266 269.263 C 222.266 268.961,221.943 269.227,220.874 270.410 M314.161 273.438 C 314.249 273.768,314.816 274.050,315.460 274.085 C 316.443 274.139,316.466 274.120,315.625 273.948 C 315.088 273.839,314.503 273.547,314.326 273.300 C 314.110 273.000,314.055 273.046,314.161 273.438 M88.843 277.441 L 87.695 278.711 88.965 277.564 C 90.148 276.494,90.414 276.172,90.112 276.172 C 90.045 276.172,89.474 276.743,88.843 277.441 M162.800 278.017 C 163.502 278.104,164.557 278.103,165.144 278.013 C 165.731 277.924,165.156 277.853,163.867 277.855 C 162.578 277.858,162.098 277.931,162.800 278.017 M243.491 280.859 C 243.491 282.471,243.560 283.130,243.644 282.324 C 243.728 281.519,243.728 280.200,243.644 279.395 C 243.560 278.589,243.491 279.248,243.491 280.859 M65.411 280.176 L 63.867 281.836 65.527 280.292 C 67.071 278.856,67.367 278.516,67.071 278.516 C 67.008 278.516,66.261 279.263,65.411 280.176 M336.499 287.988 L 335.352 289.258 336.621 288.111 C 337.319 287.479,337.891 286.908,337.891 286.841 C 337.891 286.539,337.568 286.805,336.499 287.988 M104.809 289.258 C 104.811 290.547,104.884 291.027,104.971 290.325 C 105.058 289.623,105.056 288.568,104.967 287.981 C 104.877 287.394,104.806 287.969,104.809 289.258 M331.821 292.285 L 329.883 294.336 331.934 292.397 C 333.062 291.331,333.984 290.409,333.984 290.347 C 333.984 290.055,333.622 290.380,331.821 292.285 M104.809 295.508 C 104.811 296.797,104.884 297.277,104.971 296.575 C 105.058 295.873,105.056 294.818,104.967 294.231 C 104.877 293.644,104.806 294.219,104.809 295.508 M315.227 298.730 L 311.523 302.539 315.332 298.836 C 317.427 296.799,319.141 295.085,319.141 295.027 C 319.141 294.744,318.666 295.193,315.227 298.730 M325.000 299.023 C 324.051 299.990,323.363 300.781,323.470 300.781 C 323.578 300.781,324.442 299.990,325.391 299.023 C 326.339 298.057,327.028 297.266,326.920 297.266 C 326.813 297.266,325.949 298.057,325.000 299.023 M235.526 305.371 L 234.180 306.836 235.645 305.490 C 236.450 304.749,237.109 304.090,237.109 304.025 C 237.109 303.727,236.779 304.008,235.526 305.371 M306.821 307.520 L 304.883 309.570 306.934 307.632 C 308.839 305.831,309.164 305.469,308.872 305.469 C 308.810 305.469,307.887 306.392,306.821 307.520 M300.571 314.160 L 298.633 316.211 300.684 314.272 C 302.589 312.471,302.914 312.109,302.622 312.109 C 302.560 312.109,301.637 313.032,300.571 314.160 M293.931 321.191 L 291.992 323.242 294.043 321.304 C 295.171 320.238,296.094 319.315,296.094 319.253 C 296.094 318.961,295.732 319.286,293.931 321.191 M287.771 327.591 C 286.738 328.576,285.957 329.447,286.036 329.526 C 286.115 329.605,287.042 328.795,288.095 327.725 C 290.496 325.288,290.279 325.198,287.771 327.591 M287.689 338.379 L 283.398 342.773 287.793 338.483 C 290.210 336.124,292.188 334.146,292.188 334.089 C 292.188 333.807,291.674 334.297,287.689 338.379 M188.261 336.578 C 188.045 337.145,187.941 337.681,188.030 337.769 C 188.118 337.858,188.378 337.394,188.606 336.739 C 189.114 335.282,188.808 335.139,188.261 336.578 M62.989 348.633 C 62.993 349.492,63.073 349.798,63.167 349.312 C 63.260 348.826,63.257 348.123,63.159 347.749 C 63.061 347.376,62.985 347.773,62.989 348.633 M32.513 352.734 C 32.513 353.486,32.593 353.794,32.691 353.418 C 32.789 353.042,32.789 352.427,32.691 352.051 C 32.593 351.675,32.513 351.982,32.513 352.734 M116.903 368.750 C 116.903 369.717,116.979 370.112,117.073 369.629 C 117.166 369.146,117.166 368.354,117.073 367.871 C 116.979 367.388,116.903 367.783,116.903 368.750 M125.760 369.434 L 124.414 370.898 125.879 369.552 C 127.242 368.299,127.523 367.969,127.225 367.969 C 127.160 367.969,126.501 368.628,125.760 369.434 M123.817 381.934 L 121.289 384.570 123.926 382.043 C 126.375 379.695,126.741 379.297,126.454 379.297 C 126.394 379.297,125.207 380.483,123.817 381.934 M333.971 382.715 L 331.836 384.961 334.082 382.826 C 336.169 380.842,336.507 380.469,336.217 380.469 C 336.156 380.469,335.145 381.479,333.971 382.715 M70.884 383.301 L 68.945 385.352 70.996 383.413 C 72.124 382.347,73.047 381.424,73.047 381.362 C 73.047 381.071,72.685 381.395,70.884 383.301 M310.742 387.109 C 311.581 387.969,312.356 388.672,312.463 388.672 C 312.571 388.672,311.972 387.969,311.133 387.109 C 310.294 386.250,309.519 385.547,309.412 385.547 C 309.304 385.547,309.903 386.250,310.742 387.109 " stroke="none" fill="#606060" fill-rule="evenodd"></path></g></svg>