<?xml version="1.0" standalone="no"?>
<!DOCTYPE svg PUBLIC "-//W3C//DTD SVG 20010904//EN"
  "http://www.w3.org/TR/2001/REC-SVG-20010904/DTD/svg10.dtd">
<svg width="16" height="16">
  <circle cx="0" cy="0" r="1" fill="srgba(0,56,77,1)"/>
  <circle cx="1" cy="0" r="1" fill="srgba(0,25,34,1)"/>
  <circle cx="2" cy="0" r="1" fill="srgba(1,32,43,1)"/>
  <circle cx="3" cy="0" r="1" fill="srgba(2,32,42,1)"/>
  <circle cx="4" cy="0" r="1" fill="srgba(2,32,42,1)"/>
  <circle cx="5" cy="0" r="1" fill="srgba(0,26,37,1)"/>
  <circle cx="6" cy="0" r="1" fill="srgba(15,44,54,1)"/>
  <circle cx="7" cy="0" r="1" fill="srgba(140,170,180,1)"/>
  <circle cx="8" cy="0" r="1" fill="srgba(121,150,161,1)"/>
  <circle cx="9" cy="0" r="1" fill="srgba(0,25,36,1)"/>
  <circle cx="10" cy="0" r="1" fill="srgba(1,31,42,1)"/>
  <circle cx="11" cy="0" r="1" fill="srgba(104,134,144,1)"/>
  <circle cx="12" cy="0" r="1" fill="srgba(106,135,146,1)"/>
  <circle cx="13" cy="0" r="1" fill="srgba(0,24,35,1)"/>
  <circle cx="14" cy="0" r="1" fill="srgba(2,27,36,1)"/>
  <circle cx="15" cy="0" r="1" fill="srgba(0,56,77,1)"/>
  <circle cx="0" cy="1" r="1" fill="srgba(0,32,44,1)"/>
  <circle cx="1" cy="1" r="1" fill="srgba(1,0,0,1)"/>
  <circle cx="2" cy="1" r="1" fill="srgba(1,1,2,1)"/>
  <circle cx="3" cy="1" r="1" fill="black"/>
  <circle cx="4" cy="1" r="1" fill="srgba(1,1,1,1)"/>
  <circle cx="5" cy="1" r="1" fill="black"/>
  <circle cx="6" cy="1" r="1" fill="srgba(56,52,51,1)"/>
  <circle cx="7" cy="1" r="1" fill="srgba(69,64,62,1)"/>
  <circle cx="8" cy="1" r="1" fill="srgba(241,239,239,1)"/>
  <circle cx="9" cy="1" r="1" fill="srgba(77,76,76,1)"/>
  <circle cx="10" cy="1" r="1" fill="black"/>
  <circle cx="11" cy="1" r="1" fill="srgba(208,206,205,1)"/>
  <circle cx="12" cy="1" r="1" fill="srgba(142,140,140,1)"/>
  <circle cx="13" cy="1" r="1" fill="black"/>
  <circle cx="14" cy="1" r="1" fill="srgba(4,0,0,1)"/>
  <circle cx="15" cy="1" r="1" fill="srgba(0,32,44,1)"/>
  <circle cx="0" cy="2" r="1" fill="srgba(1,34,46,1)"/>
  <circle cx="1" cy="2" r="1" fill="black"/>
  <circle cx="2" cy="2" r="1" fill="srgba(23,24,25,1)"/>
  <circle cx="3" cy="2" r="1" fill="srgba(47,48,49,1)"/>
  <circle cx="4" cy="2" r="1" fill="srgba(18,19,20,1)"/>
  <circle cx="5" cy="2" r="1" fill="srgba(0,1,1,1)"/>
  <circle cx="6" cy="2" r="1" fill="black"/>
  <circle cx="7" cy="2" r="1" fill="srgba(17,17,17,1)"/>
  <circle cx="8" cy="2" r="1" fill="srgba(221,222,222,1)"/>
  <circle cx="9" cy="2" r="1" fill="srgba(48,49,50,1)"/>
  <circle cx="10" cy="2" r="1" fill="black"/>
  <circle cx="11" cy="2" r="1" fill="srgba(231,231,232,1)"/>
  <circle cx="12" cy="2" r="1" fill="srgba(65,65,65,1)"/>
  <circle cx="13" cy="2" r="1" fill="srgba(14,16,17,1)"/>
  <circle cx="14" cy="2" r="1" fill="srgba(11,6,5,1)"/>
  <circle cx="15" cy="2" r="1" fill="srgba(0,31,43,1)"/>
  <circle cx="0" cy="3" r="1" fill="srgba(0,24,35,1)"/>
  <circle cx="1" cy="3" r="1" fill="srgba(36,30,28,1)"/>
  <circle cx="2" cy="3" r="1" fill="srgba(183,184,184,1)"/>
  <circle cx="3" cy="3" r="1" fill="srgba(78,78,78,1)"/>
  <circle cx="4" cy="3" r="1" fill="srgba(129,129,129,1)"/>
  <circle cx="5" cy="3" r="1" fill="black"/>
  <circle cx="6" cy="3" r="1" fill="grey35"/>
  <circle cx="7" cy="3" r="1" fill="grey89"/>
  <circle cx="8" cy="3" r="1" fill="srgba(83,83,83,1)"/>
  <circle cx="9" cy="3" r="1" fill="black"/>
  <circle cx="10" cy="3" r="1" fill="grey25"/>
  <circle cx="11" cy="3" r="1" fill="grey88"/>
  <circle cx="12" cy="3" r="1" fill="grey31"/>
  <circle cx="13" cy="3" r="1" fill="srgba(252,253,253,1)"/>
  <circle cx="14" cy="3" r="1" fill="srgba(93,88,85,1)"/>
  <circle cx="15" cy="3" r="1" fill="srgba(0,13,25,1)"/>
  <circle cx="0" cy="4" r="1" fill="srgba(0,19,31,1)"/>
  <circle cx="1" cy="4" r="1" fill="srgba(54,49,47,1)"/>
  <circle cx="2" cy="4" r="1" fill="white"/>
  <circle cx="3" cy="4" r="1" fill="srgba(67,67,67,1)"/>
  <circle cx="4" cy="4" r="1" fill="srgba(22,22,22,1)"/>
  <circle cx="5" cy="4" r="1" fill="srgba(1,1,1,1)"/>
  <circle cx="6" cy="4" r="1" fill="srgba(29,29,29,1)"/>
  <circle cx="7" cy="4" r="1" fill="grey86"/>
  <circle cx="8" cy="4" r="1" fill="grey68"/>
  <circle cx="9" cy="4" r="1" fill="black"/>
  <circle cx="10" cy="4" r="1" fill="srgba(124,124,124,1)"/>
  <circle cx="11" cy="4" r="1" fill="srgba(225,225,225,1)"/>
  <circle cx="12" cy="4" r="1" fill="srgba(60,60,60,1)"/>
  <circle cx="13" cy="4" r="1" fill="srgba(238,239,240,1)"/>
  <circle cx="14" cy="4" r="1" fill="srgba(73,67,65,1)"/>
  <circle cx="15" cy="4" r="1" fill="srgba(0,16,28,1)"/>
  <circle cx="0" cy="5" r="1" fill="srgba(2,34,45,1)"/>
  <circle cx="1" cy="5" r="1" fill="black"/>
  <circle cx="2" cy="5" r="1" fill="srgba(174,176,176,1)"/>
  <circle cx="3" cy="5" r="1" fill="srgba(236,236,236,1)"/>
  <circle cx="4" cy="5" r="1" fill="srgba(12,12,12,1)"/>
  <circle cx="5" cy="5" r="1" fill="black"/>
  <circle cx="6" cy="5" r="1" fill="black"/>
  <circle cx="7" cy="5" r="1" fill="srgba(114,114,114,1)"/>
  <circle cx="8" cy="5" r="1" fill="grey83"/>
  <circle cx="9" cy="5" r="1" fill="black"/>
  <circle cx="10" cy="5" r="1" fill="grey76"/>
  <circle cx="11" cy="5" r="1" fill="grey63"/>
  <circle cx="12" cy="5" r="1" fill="grey21"/>
  <circle cx="13" cy="5" r="1" fill="srgba(235,236,237,1)"/>
  <circle cx="14" cy="5" r="1" fill="srgba(9,3,1,1)"/>
  <circle cx="15" cy="5" r="1" fill="srgba(0,29,41,1)"/>
  <circle cx="0" cy="6" r="1" fill="srgba(5,37,49,1)"/>
  <circle cx="1" cy="6" r="1" fill="srgba(70,64,62,1)"/>
  <circle cx="2" cy="6" r="1" fill="srgba(15,17,17,1)"/>
  <circle cx="3" cy="6" r="1" fill="grey89"/>
  <circle cx="4" cy="6" r="1" fill="srgba(58,58,58,1)"/>
  <circle cx="5" cy="6" r="1" fill="grey20"/>
  <circle cx="6" cy="6" r="1" fill="black"/>
  <circle cx="7" cy="6" r="1" fill="srgba(142,142,142,1)"/>
  <circle cx="8" cy="6" r="1" fill="grey50"/>
  <circle cx="9" cy="6" r="1" fill="black"/>
  <circle cx="10" cy="6" r="1" fill="srgba(246,246,246,1)"/>
  <circle cx="11" cy="6" r="1" fill="srgba(47,47,47,1)"/>
  <circle cx="12" cy="6" r="1" fill="srgba(134,134,134,1)"/>
  <circle cx="13" cy="6" r="1" fill="srgba(212,213,213,1)"/>
  <circle cx="14" cy="6" r="1" fill="srgba(9,4,2,1)"/>
  <circle cx="15" cy="6" r="1" fill="srgba(0,30,42,1)"/>
  <circle cx="0" cy="7" r="1" fill="srgba(3,35,47,1)"/>
  <circle cx="1" cy="7" r="1" fill="srgba(148,142,140,1)"/>
  <circle cx="2" cy="7" r="1" fill="srgba(81,82,83,1)"/>
  <circle cx="3" cy="7" r="1" fill="grey46"/>
  <circle cx="4" cy="7" r="1" fill="srgba(17,17,17,1)"/>
  <circle cx="5" cy="7" r="1" fill="srgba(210,210,210,1)"/>
  <circle cx="6" cy="7" r="1" fill="srgba(162,162,162,1)"/>
  <circle cx="7" cy="7" r="1" fill="grey40"/>
  <circle cx="8" cy="7" r="1" fill="black"/>
  <circle cx="9" cy="7" r="1" fill="grey18"/>
  <circle cx="10" cy="7" r="1" fill="grey76"/>
  <circle cx="11" cy="7" r="1" fill="black"/>
  <circle cx="12" cy="7" r="1" fill="srgba(136,136,136,1)"/>
  <circle cx="13" cy="7" r="1" fill="srgba(165,166,166,1)"/>
  <circle cx="14" cy="7" r="1" fill="srgba(2,0,0,1)"/>
  <circle cx="15" cy="7" r="1" fill="srgba(0,31,43,1)"/>
  <circle cx="0" cy="8" r="1" fill="srgba(1,33,45,1)"/>
  <circle cx="1" cy="8" r="1" fill="srgba(4,0,0,1)"/>
  <circle cx="2" cy="8" r="1" fill="srgba(24,25,25,1)"/>
  <circle cx="3" cy="8" r="1" fill="srgba(7,7,7,1)"/>
  <circle cx="4" cy="8" r="1" fill="black"/>
  <circle cx="5" cy="8" r="1" fill="srgba(7,7,7,1)"/>
  <circle cx="6" cy="8" r="1" fill="grey8"/>
  <circle cx="7" cy="8" r="1" fill="srgba(2,2,2,1)"/>
  <circle cx="8" cy="8" r="1" fill="srgba(2,2,2,1)"/>
  <circle cx="9" cy="8" r="1" fill="grey1"/>
  <circle cx="10" cy="8" r="1" fill="srgba(1,1,1,1)"/>
  <circle cx="11" cy="8" r="1" fill="grey61"/>
  <circle cx="12" cy="8" r="1" fill="grey50"/>
  <circle cx="13" cy="8" r="1" fill="black"/>
  <circle cx="14" cy="8" r="1" fill="srgba(3,0,0,1)"/>
  <circle cx="15" cy="8" r="1" fill="srgba(0,32,44,1)"/>
  <circle cx="0" cy="9" r="1" fill="srgba(0,32,44,1)"/>
  <circle cx="1" cy="9" r="1" fill="srgba(1,0,0,1)"/>
  <circle cx="2" cy="9" r="1" fill="srgba(0,1,2,1)"/>
  <circle cx="3" cy="9" r="1" fill="black"/>
  <circle cx="4" cy="9" r="1" fill="black"/>
  <circle cx="5" cy="9" r="1" fill="black"/>
  <circle cx="6" cy="9" r="1" fill="black"/>
  <circle cx="7" cy="9" r="1" fill="black"/>
  <circle cx="8" cy="9" r="1" fill="srgba(1,1,1,1)"/>
  <circle cx="9" cy="9" r="1" fill="srgba(1,1,1,1)"/>
  <circle cx="10" cy="9" r="1" fill="black"/>
  <circle cx="11" cy="9" r="1" fill="srgba(216,216,216,1)"/>
  <circle cx="12" cy="9" r="1" fill="grey44"/>
  <circle cx="13" cy="9" r="1" fill="black"/>
  <circle cx="14" cy="9" r="1" fill="srgba(4,0,0,1)"/>
  <circle cx="15" cy="9" r="1" fill="srgba(0,32,44,1)"/>
  <circle cx="0" cy="10" r="1" fill="srgba(0,33,44,1)"/>
  <circle cx="1" cy="10" r="1" fill="black"/>
  <circle cx="2" cy="10" r="1" fill="srgba(8,9,10,1)"/>
  <circle cx="3" cy="10" r="1" fill="grey30"/>
  <circle cx="4" cy="10" r="1" fill="srgba(62,62,62,1)"/>
  <circle cx="5" cy="10" r="1" fill="grey21"/>
  <circle cx="6" cy="10" r="1" fill="srgba(16,16,16,1)"/>
  <circle cx="7" cy="10" r="1" fill="srgba(80,80,80,1)"/>
  <circle cx="8" cy="10" r="1" fill="srgba(57,57,57,1)"/>
  <circle cx="9" cy="10" r="1" fill="srgba(53,53,53,1)"/>
  <circle cx="10" cy="10" r="1" fill="grey9"/>
  <circle cx="11" cy="10" r="1" fill="srgba(236,236,236,1)"/>
  <circle cx="12" cy="10" r="1" fill="grey23"/>
  <circle cx="13" cy="10" r="1" fill="srgba(70,72,72,1)"/>
  <circle cx="14" cy="10" r="1" fill="srgba(29,23,21,1)"/>
  <circle cx="15" cy="10" r="1" fill="srgba(0,27,39,1)"/>
  <circle cx="0" cy="11" r="1" fill="srgba(2,34,46,1)"/>
  <circle cx="1" cy="11" r="1" fill="black"/>
  <circle cx="2" cy="11" r="1" fill="srgba(164,165,165,1)"/>
  <circle cx="3" cy="11" r="1" fill="srgba(103,103,103,1)"/>
  <circle cx="4" cy="11" r="1" fill="grey80"/>
  <circle cx="5" cy="11" r="1" fill="grey53"/>
  <circle cx="6" cy="11" r="1" fill="grey9"/>
  <circle cx="7" cy="11" r="1" fill="srgba(230,230,230,1)"/>
  <circle cx="8" cy="11" r="1" fill="srgba(197,197,197,1)"/>
  <circle cx="9" cy="11" r="1" fill="grey64"/>
  <circle cx="10" cy="11" r="1" fill="srgba(75,75,75,1)"/>
  <circle cx="11" cy="11" r="1" fill="grey84"/>
  <circle cx="12" cy="11" r="1" fill="grey18"/>
  <circle cx="13" cy="11" r="1" fill="srgba(133,134,134,1)"/>
  <circle cx="14" cy="11" r="1" fill="srgba(11,5,3,1)"/>
  <circle cx="15" cy="11" r="1" fill="srgba(0,30,42,1)"/>
  <circle cx="0" cy="12" r="1" fill="srgba(0,17,28,1)"/>
  <circle cx="1" cy="12" r="1" fill="srgba(72,66,64,1)"/>
  <circle cx="2" cy="12" r="1" fill="srgba(218,219,219,1)"/>
  <circle cx="3" cy="12" r="1" fill="srgba(6,6,6,1)"/>
  <circle cx="4" cy="12" r="1" fill="grey90"/>
  <circle cx="5" cy="12" r="1" fill="srgba(58,58,58,1)"/>
  <circle cx="6" cy="12" r="1" fill="grey17"/>
  <circle cx="7" cy="12" r="1" fill="grey92"/>
  <circle cx="8" cy="12" r="1" fill="srgba(65,65,65,1)"/>
  <circle cx="9" cy="12" r="1" fill="srgba(6,6,6,1)"/>
  <circle cx="10" cy="12" r="1" fill="grey58"/>
  <circle cx="11" cy="12" r="1" fill="srgba(206,206,206,1)"/>
  <circle cx="12" cy="12" r="1" fill="grey61"/>
  <circle cx="13" cy="12" r="1" fill="srgba(17,18,18,1)"/>
  <circle cx="14" cy="12" r="1" fill="black"/>
  <circle cx="15" cy="12" r="1" fill="srgba(1,33,45,1)"/>
  <circle cx="0" cy="13" r="1" fill="srgba(0,11,23,1)"/>
  <circle cx="1" cy="13" r="1" fill="srgba(165,160,159,1)"/>
  <circle cx="2" cy="13" r="1" fill="srgba(147,149,150,1)"/>
  <circle cx="3" cy="13" r="1" fill="srgba(59,60,60,1)"/>
  <circle cx="4" cy="13" r="1" fill="srgba(243,244,244,1)"/>
  <circle cx="5" cy="13" r="1" fill="black"/>
  <circle cx="6" cy="13" r="1" fill="srgba(122,123,123,1)"/>
  <circle cx="7" cy="13" r="1" fill="srgba(209,210,210,1)"/>
  <circle cx="8" cy="13" r="1" fill="black"/>
  <circle cx="9" cy="13" r="1" fill="black"/>
  <circle cx="10" cy="13" r="1" fill="srgba(203,204,204,1)"/>
  <circle cx="11" cy="13" r="1" fill="srgba(183,184,184,1)"/>
  <circle cx="12" cy="13" r="1" fill="grey89"/>
  <circle cx="13" cy="13" r="1" fill="srgba(38,39,40,1)"/>
  <circle cx="14" cy="13" r="1" fill="black"/>
  <circle cx="15" cy="13" r="1" fill="srgba(1,34,46,1)"/>
  <circle cx="0" cy="14" r="1" fill="srgba(0,14,25,1)"/>
  <circle cx="1" cy="14" r="1" fill="srgba(184,178,176,1)"/>
  <circle cx="2" cy="14" r="1" fill="srgba(186,184,184,1)"/>
  <circle cx="3" cy="14" r="1" fill="srgba(163,159,158,1)"/>
  <circle cx="4" cy="14" r="1" fill="srgba(224,222,222,1)"/>
  <circle cx="5" cy="14" r="1" fill="srgba(15,11,9,1)"/>
  <circle cx="6" cy="14" r="1" fill="srgba(195,194,193,1)"/>
  <circle cx="7" cy="14" r="1" fill="srgba(134,132,131,1)"/>
  <circle cx="8" cy="14" r="1" fill="black"/>
  <circle cx="9" cy="14" r="1" fill="srgba(40,37,36,1)"/>
  <circle cx="10" cy="14" r="1" fill="srgba(244,243,242,1)"/>
  <circle cx="11" cy="14" r="1" fill="srgba(45,43,42,1)"/>
  <circle cx="12" cy="14" r="1" fill="srgba(218,217,216,1)"/>
  <circle cx="13" cy="14" r="1" fill="srgba(149,146,145,1)"/>
  <circle cx="14" cy="14" r="1" fill="black"/>
  <circle cx="15" cy="14" r="1" fill="srgba(0,32,43,1)"/>
  <circle cx="0" cy="15" r="1" fill="srgba(0,44,66,1)"/>
  <circle cx="1" cy="15" r="1" fill="srgba(91,120,130,1)"/>
  <circle cx="2" cy="15" r="1" fill="srgba(150,184,197,1)"/>
  <circle cx="3" cy="15" r="1" fill="srgba(91,123,135,1)"/>
  <circle cx="4" cy="15" r="1" fill="srgba(157,190,202,1)"/>
  <circle cx="5" cy="15" r="1" fill="srgba(11,44,56,1)"/>
  <circle cx="6" cy="15" r="1" fill="srgba(134,167,179,1)"/>
  <circle cx="7" cy="15" r="1" fill="srgba(48,78,90,1)"/>
  <circle cx="8" cy="15" r="1" fill="srgba(0,15,27,1)"/>
  <circle cx="9" cy="15" r="1" fill="srgba(47,81,93,1)"/>
  <circle cx="10" cy="15" r="1" fill="srgba(142,175,187,1)"/>
  <circle cx="11" cy="15" r="1" fill="srgba(0,25,37,1)"/>
  <circle cx="12" cy="15" r="1" fill="srgba(116,148,160,1)"/>
  <circle cx="13" cy="15" r="1" fill="srgba(82,115,128,1)"/>
  <circle cx="14" cy="15" r="1" fill="srgba(0,16,27,1)"/>
  <circle cx="15" cy="15" r="1" fill="srgba(2,61,83,1)"/>
</svg>
